<svg width="600" height="600" viewBox="0 0 600 600" fill="none" xmlns="http://www.w3.org/2000/svg">
<circle cx="300" cy="300" r="295" fill="black" stroke="white" stroke-width="10"/>
<path d="M400.017 130.154L484.615 130.154C439.556 130.154 438.488 130.154 309.618 542.455C306.694 551.811 293.306 551.811 290.382 542.455C161.513 130.154 160.444 130.154 115.385 130.154H199.983C204.526 130.154 208.498 133.216 209.654 137.609L290.329 444.174C292.945 454.114 307.055 454.114 309.671 444.174L390.346 137.609C391.502 133.216 395.474 130.154 400.017 130.154Z" fill="white" stroke="white"/>
<path d="M245.492 187.818L211.385 142.154L290.236 505.196C292.516 515.698 307.495 515.7 309.779 505.199L388.154 144.906L370.142 154.311L362.942 147.551H349.892L338.192 141.672V128.74L346.742 123.743L354.842 128.74L357.542 132.855L367.442 134.618L373.292 128.74L367.442 123.743L354.842 119.334H329.192L318.842 141.672L338.192 154.311L349.892 159.308L357.542 175.767L342.242 184.291L331.442 174.004L308.942 187.818L318.842 193.109L325.142 184.291L331.442 195.166L314.342 209.863H290.942L276.542 195.166L290.942 187.818L300.392 180.764L308.942 169.301L314.342 154.311L300.392 137.264H281.042L273.842 147.551L283.742 154.311L286.892 144.906L296.792 159.308L286.892 169.301L273.842 171.065L265.742 149.902L273.842 126.682L259.442 114.925L236.492 111.692L217.592 116.983L245.492 137.264V187.818Z" fill="url(#paint0_linear_21_6)"/>
<defs>
<linearGradient id="paint0_linear_21_6" x1="297.467" y1="111.692" x2="300" y2="453.231" gradientUnits="userSpaceOnUse">
<stop offset="0.0208333" stop-color="#FEAA2B"/>
<stop offset="0.109375" stop-color="#FAFAFA"/>
<stop offset="1" stop-color="#D9D9D9" stop-opacity="0"/>
</linearGradient>
</defs>
</svg>
