<svg width="500" height="625" viewBox="0 0 500 625" fill="none" xmlns="http://www.w3.org/2000/svg">
<mask id="path-1-inside-1_593_58" fill="white">
<path fill-rule="evenodd" clip-rule="evenodd" d="M466.248 387.615C487.709 349.537 500 305.274 500 258.047C500 115.531 388.071 0 250 0C111.929 0 0 115.531 0 258.047C0 305.274 12.2912 349.537 33.7519 387.615H33.4932C33.4932 387.615 33.6994 387.824 34.0991 388.229C55.8832 426.637 87.012 458.713 124.265 481.131C183.541 543.149 250 614.928 250 625C250 614.796 316.314 543.177 375.541 481.248C412.881 458.823 444.081 426.702 465.903 388.225C466.301 387.823 466.506 387.615 466.506 387.615H466.248Z"/>
</mask>
<path fill-rule="evenodd" clip-rule="evenodd" d="M466.248 387.615C487.709 349.537 500 305.274 500 258.047C500 115.531 388.071 0 250 0C111.929 0 0 115.531 0 258.047C0 305.274 12.2912 349.537 33.7519 387.615H33.4932C33.4932 387.615 33.6994 387.824 34.0991 388.229C55.8832 426.637 87.012 458.713 124.265 481.131C183.541 543.149 250 614.928 250 625C250 614.796 316.314 543.177 375.541 481.248C412.881 458.823 444.081 426.702 465.903 388.225C466.301 387.823 466.506 387.615 466.506 387.615H466.248Z" fill="url(#paint0_linear_593_58)"/>
<path d="M466.248 387.615L457.536 382.705L449.133 397.615H466.248V387.615ZM33.7519 387.615V397.615H50.8667L42.4636 382.705L33.7519 387.615ZM33.4932 387.615V377.615H9.56069L26.3785 394.643L33.4932 387.615ZM34.0991 388.229L42.7974 383.296L42.1459 382.147L41.2185 381.207L34.0991 388.229ZM124.265 481.131L131.494 474.222L130.569 473.253L129.421 472.563L124.265 481.131ZM375.541 481.248L370.392 472.675L369.242 473.366L368.314 474.336L375.541 481.248ZM465.903 388.225L458.788 381.199L457.858 382.141L457.205 383.292L465.903 388.225ZM466.506 387.615L473.617 394.646L490.455 377.615H466.506V387.615ZM490 258.047C490 303.522 478.168 346.098 457.536 382.705L474.96 392.525C497.249 352.976 510 307.026 510 258.047H490ZM250 10C382.252 10 490 120.753 490 258.047H510C510 110.31 393.89 -10 250 -10V10ZM10 258.047C10 120.753 117.748 10 250 10V-10C106.11 -10 -10 110.31 -10 258.047H10ZM42.4636 382.705C21.8318 346.098 10 303.522 10 258.047H-10C-10 307.026 2.7507 352.976 25.0402 392.525L42.4636 382.705ZM33.4932 397.615H33.7519V377.615H33.4932V397.615ZM41.2185 381.207C41.0178 381.004 40.8656 380.849 40.7633 380.746C40.7121 380.694 40.6734 380.655 40.6475 380.628C40.6345 380.615 40.6247 380.605 40.6181 380.599C40.6148 380.595 40.6123 380.593 40.6105 380.591C40.6097 380.59 40.609 380.589 40.6086 380.589C40.6084 380.589 40.6082 380.589 40.6081 380.588C40.608 380.588 40.608 380.588 40.6079 380.588C40.6079 380.588 40.6079 380.588 40.6079 380.588C40.6079 380.588 40.6079 380.588 40.6079 380.588C40.6078 380.588 40.6078 380.588 33.4932 387.615C26.3785 394.643 26.3785 394.643 26.3785 394.643C26.3785 394.643 26.3785 394.643 26.3785 394.643C26.3785 394.643 26.3785 394.643 26.3785 394.643C26.3785 394.643 26.3785 394.643 26.3786 394.643C26.3786 394.643 26.3788 394.643 26.3789 394.643C26.3793 394.643 26.3799 394.644 26.3806 394.645C26.3821 394.646 26.3844 394.649 26.3875 394.652C26.3938 394.658 26.4032 394.668 26.4158 394.68C26.441 394.706 26.4788 394.744 26.5292 394.795C26.6299 394.897 26.7806 395.05 26.9796 395.252L41.2185 381.207ZM129.421 472.563C93.666 451.046 63.7471 420.233 42.7974 383.296L25.4007 393.163C48.0194 433.042 80.3581 466.38 119.109 489.699L129.421 472.563ZM260 625C260 622.116 258.956 619.608 258.33 618.241C257.567 616.575 256.564 614.835 255.473 613.114C253.277 609.651 250.213 605.476 246.554 600.817C239.204 591.455 228.881 579.418 216.826 565.892C192.684 538.803 161.153 505.253 131.494 474.222L117.036 488.04C146.652 519.027 177.99 552.375 201.895 579.198C213.865 592.628 223.861 604.3 230.824 613.168C234.322 617.623 236.913 621.192 238.583 623.826C239.425 625.152 239.908 626.047 240.147 626.57C240.523 627.391 240 626.624 240 625H260ZM368.314 474.336C338.678 505.324 307.195 538.813 283.093 565.869C271.059 579.379 260.753 591.408 253.415 600.775C249.762 605.438 246.702 609.62 244.508 613.095C243.418 614.823 242.416 616.571 241.655 618.245C241.025 619.631 240 622.131 240 625H260C260 626.592 259.492 627.337 259.862 626.522C260.101 625.996 260.583 625.099 261.421 623.771C263.085 621.134 265.669 617.564 269.158 613.109C276.105 604.243 286.08 592.584 298.027 579.172C321.889 552.386 353.176 519.101 382.768 488.159L368.314 474.336ZM457.205 383.292C436.219 420.295 406.231 451.152 370.392 472.675L380.689 489.821C419.531 466.495 451.944 433.109 474.602 393.159L457.205 383.292ZM466.506 387.615C459.395 380.585 459.395 380.585 459.395 380.585C459.395 380.585 459.395 380.585 459.395 380.585C459.395 380.585 459.395 380.585 459.395 380.585C459.395 380.585 459.394 380.585 459.394 380.585C459.394 380.585 459.394 380.585 459.394 380.585C459.393 380.586 459.393 380.587 459.392 380.587C459.39 380.589 459.388 380.592 459.385 380.595C459.378 380.601 459.368 380.611 459.355 380.624C459.33 380.65 459.291 380.689 459.24 380.741C459.139 380.844 458.988 380.997 458.788 381.199L473.018 395.252C473.216 395.051 473.366 394.9 473.467 394.798C473.517 394.747 473.555 394.709 473.58 394.684C473.592 394.671 473.602 394.662 473.608 394.655C473.611 394.652 473.613 394.65 473.615 394.648C473.616 394.647 473.616 394.647 473.617 394.647C473.617 394.646 473.617 394.646 473.617 394.646C473.617 394.646 473.617 394.646 473.617 394.646C473.617 394.646 473.617 394.646 473.617 394.646C473.617 394.646 473.617 394.646 473.617 394.646C473.617 394.646 473.617 394.646 466.506 387.615ZM466.248 397.615H466.506V377.615H466.248V397.615Z" fill="black" mask="url(#path-1-inside-1_593_58)"/>
<path d="M266.563 297.889V266.498C266.563 229.219 296.784 198.998 334.063 198.998H380.272H437.127M266.563 297.889V396.78V396.78C266.563 441.125 205.809 453.665 188.251 412.945L95.9993 198.998M266.563 297.889H380.272" stroke="black" stroke-width="67.5"/>
<defs>
<linearGradient id="paint0_linear_593_58" x1="0" y1="0" x2="609.756" y2="487.805" gradientUnits="userSpaceOnUse">
<stop offset="0.150413" stop-color="#FF1010"/>
<stop offset="0.465" stop-color="#FFBB00"/>
<stop offset="0.751212" stop-color="#FF2200"/>
</linearGradient>
</defs>
</svg>
