<svg width="500" height="750" viewBox="0 0 500 750" fill="none" xmlns="http://www.w3.org/2000/svg">
<mask id="path-1-inside-1_593_58" fill="white">
<path fill-rule="evenodd" clip-rule="evenodd" d="M466.248 387.615C487.709 349.537 500 305.274 500 258.047C500 115.531 388.071 0 250 0C111.929 0 0 115.531 0 258.047C0 305.274 12.2912 349.537 33.7519 387.615H33.4932C33.4932 387.615 34.6564 389.465 36.8123 392.899C38.8843 396.382 41.0342 399.81 43.2594 403.18C85.4564 470.526 250 734.152 250 750C250 733.946 414.145 471.105 456.586 403.414C458.888 399.935 461.11 396.396 463.248 392.798C465.365 389.428 466.506 387.615 466.506 387.615H466.248Z"/>
</mask>
<path fill-rule="evenodd" clip-rule="evenodd" d="M466.248 387.615C487.709 349.537 500 305.274 500 258.047C500 115.531 388.071 0 250 0C111.929 0 0 115.531 0 258.047C0 305.274 12.2912 349.537 33.7519 387.615H33.4932C33.4932 387.615 34.6564 389.465 36.8123 392.899C38.8843 396.382 41.0342 399.81 43.2594 403.18C85.4564 470.526 250 734.152 250 750C250 733.946 414.145 471.105 456.586 403.414C458.888 399.935 461.11 396.396 463.248 392.798C465.365 389.428 466.506 387.615 466.506 387.615H466.248Z" fill="url(#paint0_linear_593_58)"/>
<path d="M466.248 387.615L457.536 382.705L449.133 397.615H466.248V387.615ZM33.7519 387.615V397.615H50.8667L42.4636 382.705L33.7519 387.615ZM33.4932 387.615V377.615H15.3894L25.0284 392.94L33.4932 387.615ZM36.8123 392.899L45.4062 387.786L45.3453 387.684L45.2821 387.583L36.8123 392.899ZM43.2594 403.18L51.7334 397.871L51.6703 397.77L51.6048 397.671L43.2594 403.18ZM456.586 403.414L448.247 397.895L448.179 397.998L448.114 398.102L456.586 403.414ZM463.248 392.798L454.78 387.479L454.715 387.583L454.652 387.688L463.248 392.798ZM466.506 387.615L474.969 392.943L484.617 377.615H466.506V387.615ZM490 258.047C490 303.522 478.168 346.098 457.536 382.705L474.96 392.525C497.249 352.976 510 307.026 510 258.047H490ZM250 10C382.252 10 490 120.753 490 258.047H510C510 110.31 393.89 -10 250 -10V10ZM10 258.047C10 120.753 117.748 10 250 10V-10C106.11 -10 -10 110.31 -10 258.047H10ZM42.4636 382.705C21.8318 346.098 10 303.522 10 258.047H-10C-10 307.026 2.7507 352.976 25.0402 392.525L42.4636 382.705ZM33.4932 397.615H33.7519V377.615H33.4932V397.615ZM45.2821 387.583C44.2032 385.864 43.3725 384.542 42.8114 383.649C42.5308 383.202 42.3176 382.863 42.1745 382.636C42.1029 382.522 42.0489 382.436 42.0127 382.378C41.9946 382.349 41.9809 382.328 41.9718 382.313C41.9672 382.306 41.9637 382.3 41.9614 382.297C41.9603 382.295 41.9594 382.293 41.9588 382.292C41.9585 382.292 41.9583 382.292 41.9581 382.291C41.9581 382.291 41.958 382.291 41.958 382.291C41.9579 382.291 41.9579 382.291 41.9579 382.291C41.9579 382.291 41.9579 382.291 33.4932 387.615C25.0284 392.94 25.0284 392.94 25.0285 392.94C25.0285 392.94 25.0285 392.94 25.0285 392.94C25.0285 392.94 25.0286 392.94 25.0286 392.94C25.0288 392.94 25.029 392.941 25.0292 392.941C25.0298 392.942 25.0306 392.943 25.0317 392.945C25.0339 392.948 25.0373 392.954 25.0417 392.961C25.0507 392.975 25.0641 392.996 25.0821 393.025C25.1179 393.082 25.1715 393.167 25.2427 393.28C25.385 393.507 25.5974 393.845 25.8771 394.29C26.4366 395.18 27.2655 396.5 28.3426 398.216L45.2821 387.583ZM51.6048 397.671C49.4654 394.43 47.3984 391.134 45.4062 387.786L28.2185 398.013C30.3703 401.629 32.603 405.189 34.914 408.69L51.6048 397.671ZM260 750C260 747.836 259.4 745.833 259.04 744.722C258.593 743.342 257.996 741.831 257.324 740.273C255.973 737.141 254.062 733.226 251.729 728.715C247.045 719.662 240.367 707.651 232.301 693.612C216.152 665.506 194.214 628.877 170.997 590.705C124.551 514.341 72.8377 431.553 51.7334 397.871L34.7854 408.49C55.8781 442.153 107.535 524.851 153.91 601.098C177.103 639.232 198.938 675.69 214.96 703.576C222.979 717.533 229.485 729.244 233.965 737.904C236.213 742.25 237.879 745.69 238.959 748.194C239.503 749.454 239.834 750.331 240.012 750.882C240.278 751.702 240 751.173 240 750H260ZM448.114 398.102C426.887 431.957 375.212 514.636 328.834 590.874C305.651 628.983 283.754 665.544 267.638 693.613C259.589 707.633 252.924 719.633 248.25 728.688C245.921 733.2 244.014 737.119 242.665 740.26C241.994 741.822 241.397 743.339 240.951 744.725C240.59 745.851 240 747.846 240 750H260C260 751.151 259.73 751.66 259.992 750.846C260.17 750.292 260.5 749.413 261.042 748.152C262.118 745.645 263.779 742.206 266.022 737.862C270.49 729.205 276.98 717.509 284.983 703.572C300.97 675.727 322.762 639.338 345.921 601.268C392.226 525.149 443.844 442.562 465.059 408.726L448.114 398.102ZM454.652 387.688C452.596 391.148 450.46 394.551 448.247 397.895L464.926 408.932C467.316 405.32 469.623 401.644 471.844 397.907L454.652 387.688ZM466.506 387.615C458.043 382.288 458.043 382.288 458.043 382.288C458.043 382.288 458.043 382.288 458.043 382.288C458.043 382.288 458.043 382.288 458.043 382.289C458.043 382.289 458.042 382.289 458.042 382.29C458.041 382.291 458.041 382.292 458.039 382.294C458.037 382.297 458.034 382.303 458.029 382.31C458.02 382.324 458.007 382.345 457.989 382.374C457.954 382.43 457.901 382.514 457.83 382.626C457.69 382.849 457.481 383.182 457.205 383.62C456.655 384.495 455.839 385.792 454.78 387.479L471.716 398.117C472.773 396.434 473.587 395.139 474.136 394.266C474.411 393.83 474.619 393.499 474.759 393.277C474.828 393.166 474.881 393.082 474.916 393.026C474.934 392.998 474.947 392.977 474.956 392.963C474.96 392.956 474.963 392.951 474.966 392.948C474.967 392.946 474.968 392.945 474.968 392.944C474.968 392.943 474.968 392.943 474.969 392.943C474.969 392.943 474.969 392.943 474.969 392.943C474.969 392.943 474.969 392.943 474.969 392.943C474.969 392.943 474.969 392.943 466.506 387.615ZM466.248 397.615H466.506V377.615H466.248V397.615Z" fill="black" mask="url(#path-1-inside-1_593_58)"/>
<path d="M266.563 297.889V266.498C266.563 229.219 296.784 198.998 334.063 198.998H380.272H437.127M266.563 297.889V396.78V396.78C266.563 441.125 205.809 453.665 188.251 412.945L95.9993 198.998M266.563 297.889H380.272" stroke="black" stroke-width="67.5"/>
<defs>
<linearGradient id="paint0_linear_593_58" x1="0" y1="0" x2="692.308" y2="461.538" gradientUnits="userSpaceOnUse">
<stop offset="0.150413" stop-color="#FF1010"/>
<stop offset="0.465" stop-color="#FFBB00"/>
<stop offset="0.751212" stop-color="#FF2200"/>
</linearGradient>
</defs>
</svg>
