<svg width="500" height="750" viewBox="0 0 500 750" fill="none" xmlns="http://www.w3.org/2000/svg">
<mask id="path-1-inside-1_593_58" fill="white">
<path fill-rule="evenodd" clip-rule="evenodd" d="M466.248 387.615C487.709 349.537 500 305.274 500 258.047C500 115.531 388.071 0 250 0C111.929 0 0 115.531 0 258.047C0 305.274 12.2912 349.537 33.7519 387.615H33.4932C33.4932 387.615 34.6564 389.465 36.8123 392.899C38.8843 396.382 41.0342 399.81 43.2594 403.18C85.4564 470.526 250 734.152 250 750C250 733.946 414.145 471.105 456.586 403.414C458.888 399.935 461.11 396.396 463.248 392.798C465.365 389.428 466.506 387.615 466.506 387.615H466.248Z"/>
</mask>
<path fill-rule="evenodd" clip-rule="evenodd" d="M466.248 387.615C487.709 349.537 500 305.274 500 258.047C500 115.531 388.071 0 250 0C111.929 0 0 115.531 0 258.047C0 305.274 12.2912 349.537 33.7519 387.615H33.4932C33.4932 387.615 34.6564 389.465 36.8123 392.899C38.8843 396.382 41.0342 399.81 43.2594 403.18C85.4564 470.526 250 734.152 250 750C250 733.946 414.145 471.105 456.586 403.414C458.888 399.935 461.11 396.396 463.248 392.798C465.365 389.428 466.506 387.615 466.506 387.615H466.248Z" fill="url(#paint0_linear_593_58)"/>
<path d="M466.248 387.615L448.825 377.796L432.018 407.615H466.248V387.615ZM33.7519 387.615V407.615H67.9815L51.1753 377.796L33.7519 387.615ZM33.4932 387.615V367.615H-2.7144L16.5637 398.264L33.4932 387.615ZM36.8123 392.899L54.0001 382.673L53.8783 382.468L53.7518 382.267L36.8123 392.899ZM43.2594 403.18L60.2074 392.561L60.0812 392.36L59.9502 392.161L43.2594 403.18ZM456.586 403.414L439.907 392.377L439.772 392.582L439.641 392.79L456.586 403.414ZM463.248 392.798L446.312 382.159L446.181 382.368L446.056 382.579L463.248 392.798ZM466.506 387.615L483.432 398.27L502.728 367.615H466.506V387.615ZM480 258.047C480 301.77 468.628 342.659 448.825 377.796L483.671 397.435C506.79 356.416 520 308.778 520 258.047H480ZM250 20C376.433 20 480 125.975 480 258.047H520C520 105.088 399.709 -20 250 -20V20ZM20 258.047C20 125.975 123.567 20 250 20V-20C100.291 -20 -20 105.088 -20 258.047H20ZM51.1753 377.796C31.3723 342.659 20 301.77 20 258.047H-20C-20 308.778 -6.78983 356.416 16.3286 397.435L51.1753 377.796ZM33.4932 407.615H33.7519V367.615H33.4932V407.615ZM53.7518 382.267C52.672 380.546 51.8405 379.223 51.2785 378.328C50.9975 377.881 50.7839 377.541 50.6404 377.313C50.5686 377.199 50.5144 377.113 50.478 377.055C50.4598 377.026 50.446 377.004 50.4368 376.989C50.4321 376.982 50.4287 376.976 50.4263 376.973C50.4251 376.971 50.4242 376.969 50.4236 376.968C50.4233 376.968 50.423 376.967 50.4229 376.967C50.4228 376.967 50.4227 376.967 50.4227 376.967C50.4227 376.967 50.4226 376.967 50.4226 376.967C50.4226 376.967 50.4226 376.967 33.4932 387.615C16.5637 398.264 16.5637 398.264 16.5637 398.264C16.5637 398.264 16.5637 398.264 16.5637 398.264C16.5638 398.264 16.5638 398.264 16.5639 398.264C16.564 398.264 16.5642 398.265 16.5644 398.265C16.565 398.266 16.5658 398.267 16.5668 398.269C16.569 398.272 16.5723 398.278 16.5767 398.285C16.5856 398.299 16.5989 398.32 16.6168 398.348C16.6524 398.405 16.7058 398.49 16.7768 398.603C16.9187 398.829 17.1307 399.166 17.41 399.61C17.9686 400.499 18.7967 401.818 19.8729 403.532L53.7518 382.267ZM59.9502 392.161C57.8967 389.051 55.9125 385.887 54.0001 382.673L19.6246 403.126C21.8562 406.877 24.1717 410.569 26.5686 414.199L59.9502 392.161ZM270 750C270 746.167 268.961 742.899 268.554 741.642C267.973 739.847 267.242 738.019 266.506 736.312C265.02 732.866 262.987 728.714 260.611 724.12C255.826 714.87 249.061 702.709 240.972 688.63C224.76 660.414 202.77 623.7 179.541 585.509C133.06 509.086 81.3175 426.253 60.2074 392.561L26.3114 413.799C47.3982 447.454 99.0263 530.106 145.366 606.295C168.547 644.409 190.33 680.782 206.289 708.558C214.285 722.475 220.705 734.036 225.083 742.499C227.288 746.762 228.832 749.964 229.777 752.155C230.256 753.265 230.454 753.825 230.498 753.962C230.717 754.636 230 752.842 230 750H270ZM439.641 392.79C418.409 426.654 366.705 509.379 320.291 585.676C297.096 623.805 275.146 660.453 258.966 688.634C250.893 702.694 244.141 714.847 239.364 724.101C236.991 728.697 234.961 732.856 233.476 736.313C232.74 738.027 232.011 739.862 231.431 741.665C231.019 742.946 230 746.194 230 750H270C270 752.803 269.3 754.565 269.512 753.906C269.556 753.768 269.754 753.208 270.23 752.098C271.171 749.908 272.708 746.709 274.907 742.449C279.273 733.991 285.676 722.447 293.655 708.551C309.578 680.818 331.317 644.515 354.464 606.465C400.734 530.405 452.323 447.864 473.531 414.038L439.641 392.79ZM446.056 382.579C444.082 385.9 442.032 389.167 439.907 392.377L473.265 414.451C475.745 410.704 478.137 406.891 480.44 403.016L446.056 382.579ZM466.506 387.615C449.58 376.961 449.58 376.961 449.58 376.961C449.58 376.961 449.58 376.961 449.58 376.961C449.58 376.961 449.58 376.961 449.58 376.961C449.58 376.962 449.579 376.962 449.579 376.963C449.578 376.964 449.578 376.965 449.576 376.967C449.574 376.97 449.571 376.976 449.566 376.983C449.557 376.998 449.544 377.019 449.526 377.047C449.49 377.104 449.437 377.189 449.366 377.301C449.225 377.525 449.016 377.858 448.74 378.296C448.188 379.173 447.372 380.472 446.312 382.159L480.184 403.436C481.24 401.754 482.053 400.461 482.601 399.59C482.876 399.154 483.083 398.823 483.223 398.602C483.292 398.491 483.345 398.408 483.38 398.352C483.397 398.325 483.41 398.304 483.419 398.29C483.423 398.283 483.427 398.278 483.429 398.275C483.43 398.273 483.431 398.272 483.431 398.271C483.431 398.27 483.431 398.27 483.432 398.27C483.432 398.27 483.432 398.27 483.432 398.27C483.432 398.27 483.432 398.27 483.432 398.27C483.432 398.27 483.432 398.27 466.506 387.615ZM466.248 407.615H466.506V367.615H466.248V407.615Z" fill="black" mask="url(#path-1-inside-1_593_58)"/>
<path d="M266.563 297.889V266.498C266.563 229.219 296.784 198.998 334.063 198.998H380.272H437.127M266.563 297.889V396.78V396.78C266.563 441.125 205.809 453.665 188.251 412.945L95.9993 198.998M266.563 297.889H380.272" stroke="black" stroke-width="67.5"/>
<defs>
<linearGradient id="paint0_linear_593_58" x1="0" y1="0" x2="692.308" y2="461.538" gradientUnits="userSpaceOnUse">
<stop offset="0.150413" stop-color="#FF1010"/>
<stop offset="0.465" stop-color="#FFBB00"/>
<stop offset="0.751212" stop-color="#FF2200"/>
</linearGradient>
</defs>
</svg>
