<svg width="500" height="750" viewBox="0 0 500 750" fill="none" xmlns="http://www.w3.org/2000/svg">
<mask id="path-1-inside-1_592_56" fill="white">
<path fill-rule="evenodd" clip-rule="evenodd" d="M466.248 387.615C487.709 349.537 500 305.274 500 258.047C500 115.531 388.071 0 250 0C111.929 0 0 115.531 0 258.047C0 305.274 12.2912 349.537 33.7519 387.615H33.4932C33.4932 387.615 34.6564 389.465 36.8123 392.899C38.8843 396.382 41.0342 399.81 43.2594 403.18C85.4564 470.526 250 734.152 250 750C250 733.946 414.145 471.105 456.586 403.414C458.888 399.935 461.11 396.396 463.248 392.798C465.365 389.428 466.506 387.615 466.506 387.615H466.248Z"/>
</mask>
<path fill-rule="evenodd" clip-rule="evenodd" d="M466.248 387.615C487.709 349.537 500 305.274 500 258.047C500 115.531 388.071 0 250 0C111.929 0 0 115.531 0 258.047C0 305.274 12.2912 349.537 33.7519 387.615H33.4932C33.4932 387.615 34.6564 389.465 36.8123 392.899C38.8843 396.382 41.0342 399.81 43.2594 403.18C85.4564 470.526 250 734.152 250 750C250 733.946 414.145 471.105 456.586 403.414C458.888 399.935 461.11 396.396 463.248 392.798C465.365 389.428 466.506 387.615 466.506 387.615H466.248Z" fill="url(#paint0_linear_592_56)"/>
<path d="M466.248 387.615L457.536 382.705L449.133 397.615H466.248V387.615ZM33.7519 387.615V397.615H50.8667L42.4636 382.705L33.7519 387.615ZM33.4932 387.615V377.615H15.3894L25.0284 392.94L33.4932 387.615ZM36.8123 392.899L45.4062 387.786L45.3453 387.684L45.2821 387.583L36.8123 392.899ZM43.2594 403.18L51.7334 397.871L51.6703 397.77L51.6048 397.671L43.2594 403.18ZM456.586 403.414L448.247 397.895L448.179 397.998L448.114 398.102L456.586 403.414ZM463.248 392.798L454.78 387.479L454.715 387.583L454.652 387.688L463.248 392.798ZM466.506 387.615L474.969 392.943L484.617 377.615H466.506V387.615ZM490 258.047C490 303.522 478.168 346.098 457.536 382.705L474.96 392.525C497.249 352.976 510 307.026 510 258.047H490ZM250 10C382.252 10 490 120.753 490 258.047H510C510 110.31 393.89 -10 250 -10V10ZM10 258.047C10 120.753 117.748 10 250 10V-10C106.11 -10 -10 110.31 -10 258.047H10ZM42.4636 382.705C21.8318 346.098 10 303.522 10 258.047H-10C-10 307.026 2.7507 352.976 25.0402 392.525L42.4636 382.705ZM33.4932 397.615H33.7519V377.615H33.4932V397.615ZM45.2821 387.583C44.2032 385.864 43.3725 384.542 42.8114 383.649C42.5308 383.202 42.3176 382.863 42.1745 382.636C42.1029 382.522 42.0489 382.436 42.0127 382.378C41.9946 382.349 41.9809 382.328 41.9718 382.313C41.9672 382.306 41.9637 382.3 41.9614 382.297C41.9603 382.295 41.9594 382.293 41.9588 382.292C41.9585 382.292 41.9583 382.292 41.9581 382.291C41.9581 382.291 41.958 382.291 41.958 382.291C41.9579 382.291 41.9579 382.291 41.9579 382.291C41.9579 382.291 41.9579 382.291 33.4932 387.615C25.0284 392.94 25.0284 392.94 25.0285 392.94C25.0285 392.94 25.0285 392.94 25.0285 392.94C25.0285 392.94 25.0286 392.94 25.0286 392.94C25.0288 392.94 25.029 392.941 25.0292 392.941C25.0298 392.942 25.0306 392.943 25.0317 392.945C25.0339 392.948 25.0373 392.954 25.0417 392.961C25.0507 392.975 25.0641 392.996 25.0821 393.025C25.1179 393.082 25.1715 393.167 25.2427 393.28C25.385 393.507 25.5974 393.845 25.8771 394.29C26.4366 395.18 27.2655 396.5 28.3426 398.216L45.2821 387.583ZM51.6048 397.671C49.4654 394.43 47.3984 391.134 45.4062 387.786L28.2185 398.013C30.3703 401.629 32.603 405.189 34.914 408.69L51.6048 397.671ZM260 750C260 747.836 259.4 745.833 259.04 744.722C258.593 743.342 257.996 741.831 257.324 740.273C255.973 737.141 254.062 733.226 251.729 728.715C247.045 719.662 240.367 707.651 232.301 693.612C216.152 665.506 194.214 628.877 170.997 590.705C124.551 514.341 72.8377 431.553 51.7334 397.871L34.7854 408.49C55.8781 442.153 107.535 524.851 153.91 601.098C177.103 639.232 198.938 675.69 214.96 703.576C222.979 717.533 229.485 729.244 233.965 737.904C236.213 742.25 237.879 745.69 238.959 748.194C239.503 749.454 239.834 750.331 240.012 750.882C240.278 751.702 240 751.173 240 750H260ZM448.114 398.102C426.887 431.957 375.212 514.636 328.834 590.874C305.651 628.983 283.754 665.544 267.638 693.613C259.589 707.633 252.924 719.633 248.25 728.688C245.921 733.2 244.014 737.119 242.665 740.26C241.994 741.822 241.397 743.339 240.951 744.725C240.59 745.851 240 747.846 240 750H260C260 751.151 259.73 751.66 259.992 750.846C260.17 750.292 260.5 749.413 261.042 748.152C262.118 745.645 263.779 742.206 266.022 737.862C270.49 729.205 276.98 717.509 284.983 703.572C300.97 675.727 322.762 639.338 345.921 601.268C392.226 525.149 443.844 442.562 465.059 408.726L448.114 398.102ZM454.652 387.688C452.596 391.148 450.46 394.551 448.247 397.895L464.926 408.932C467.316 405.32 469.623 401.644 471.844 397.907L454.652 387.688ZM466.506 387.615C458.043 382.288 458.043 382.288 458.043 382.288C458.043 382.288 458.043 382.288 458.043 382.288C458.043 382.288 458.043 382.288 458.043 382.289C458.043 382.289 458.042 382.289 458.042 382.29C458.041 382.291 458.041 382.292 458.039 382.294C458.037 382.297 458.034 382.303 458.029 382.31C458.02 382.324 458.007 382.345 457.989 382.374C457.954 382.43 457.901 382.514 457.83 382.626C457.69 382.849 457.481 383.182 457.205 383.62C456.655 384.495 455.839 385.792 454.78 387.479L471.716 398.117C472.773 396.434 473.587 395.139 474.136 394.266C474.411 393.83 474.619 393.499 474.759 393.277C474.828 393.166 474.881 393.082 474.916 393.026C474.934 392.998 474.947 392.977 474.956 392.963C474.96 392.956 474.963 392.951 474.966 392.948C474.967 392.946 474.968 392.945 474.968 392.944C474.968 392.943 474.968 392.943 474.969 392.943C474.969 392.943 474.969 392.943 474.969 392.943C474.969 392.943 474.969 392.943 474.969 392.943C474.969 392.943 474.969 392.943 466.506 387.615ZM466.248 397.615H466.506V377.615H466.248V397.615Z" fill="black" mask="url(#path-1-inside-1_592_56)"/>
<mask id="path-3-inside-2_592_56" fill="white">
<path fill-rule="evenodd" clip-rule="evenodd" d="M229.451 419.258C229.451 422.52 228.514 423.796 227.962 424.422C227.117 425.381 225.504 426.476 223.179 426.956C220.855 427.436 218.94 427.069 217.784 426.523C217.03 426.167 215.664 425.366 214.372 422.37L111.87 184.652L80.8787 198.015L183.381 435.734C201.277 477.238 263.201 464.456 263.201 419.258V309.379V274.5C263.201 231.008 298.458 195.75 341.951 195.75H393.294H456.466V162H393.294H341.951C279.819 162 229.451 212.368 229.451 274.5V309.379V419.258ZM456.466 203.25H393.294H341.951C302.6 203.25 270.701 235.15 270.701 274.5V305.629H393.294V271.879H304.541C305.886 252.391 322.121 237 341.951 237H393.294H456.466V203.25ZM393.294 313.129H270.701V419.258C270.701 472.603 197.616 487.688 176.494 438.703L73.9917 200.985L43 214.348L145.502 452.067C181.14 534.716 304.451 509.263 304.451 419.258V346.879H393.294V313.129Z"/>
</mask>
<path fill-rule="evenodd" clip-rule="evenodd" d="M229.451 419.258C229.451 422.52 228.514 423.796 227.962 424.422C227.117 425.381 225.504 426.476 223.179 426.956C220.855 427.436 218.94 427.069 217.784 426.523C217.03 426.167 215.664 425.366 214.372 422.37L111.87 184.652L80.8787 198.015L183.381 435.734C201.277 477.238 263.201 464.456 263.201 419.258V309.379V274.5C263.201 231.008 298.458 195.75 341.951 195.75H393.294H456.466V162H393.294H341.951C279.819 162 229.451 212.368 229.451 274.5V309.379V419.258ZM456.466 203.25H393.294H341.951C302.6 203.25 270.701 235.15 270.701 274.5V305.629H393.294V271.879H304.541C305.886 252.391 322.121 237 341.951 237H393.294H456.466V203.25ZM393.294 313.129H270.701V419.258C270.701 472.603 197.616 487.688 176.494 438.703L73.9917 200.985L43 214.348L145.502 452.067C181.14 534.716 304.451 509.263 304.451 419.258V346.879H393.294V313.129Z" fill="black"/>
<path d="M227.962 424.422L222.335 419.463L222.335 419.463L227.962 424.422ZM223.179 426.956L224.695 434.301L224.695 434.301L223.179 426.956ZM217.784 426.523L220.988 419.742L220.988 419.742L217.784 426.523ZM214.372 422.37L207.485 425.34L207.485 425.34L214.372 422.37ZM111.87 184.652L118.757 181.682L115.788 174.795L108.901 177.765L111.87 184.652ZM80.8787 198.015L77.9091 191.128L71.022 194.098L73.9917 200.985L80.8787 198.015ZM183.381 435.734L190.268 432.764L190.268 432.764L183.381 435.734ZM456.466 195.75V203.25H463.966V195.75H456.466ZM456.466 162H463.966V154.5H456.466V162ZM456.466 203.25H463.966V195.75H456.466V203.25ZM270.701 305.629H263.201V313.129H270.701V305.629ZM393.294 305.629V313.129H400.794V305.629H393.294ZM393.294 271.879H400.794V264.379H393.294V271.879ZM304.541 271.879L297.059 271.362L296.505 279.379H304.541V271.879ZM456.466 237V244.5H463.966V237H456.466ZM393.294 313.129H400.794V305.629H393.294V313.129ZM270.701 313.129V305.629H263.201V313.129H270.701ZM176.494 438.703L183.381 435.734L183.381 435.734L176.494 438.703ZM73.9917 200.985L80.8787 198.015L77.9091 191.128L71.022 194.098L73.9917 200.985ZM43 214.348L40.0304 207.461L33.1433 210.431L36.113 217.318L43 214.348ZM145.502 452.067L152.389 449.097L152.389 449.097L145.502 452.067ZM304.451 346.879V339.379H296.951V346.879H304.451ZM393.294 346.879V354.379H400.794V346.879H393.294ZM233.59 429.38C234.265 428.613 235.217 427.37 235.932 425.472C236.613 423.663 236.951 421.605 236.951 419.258H221.951C221.951 420.173 221.82 420.384 221.894 420.185C221.932 420.085 222.001 419.938 222.109 419.769C222.16 419.689 222.211 419.618 222.256 419.56C222.301 419.502 222.333 419.466 222.335 419.463L233.59 429.38ZM224.695 434.301C228.509 433.514 231.6 431.637 233.59 429.38L222.335 419.463C222.433 419.352 222.494 419.303 222.501 419.298C222.51 419.29 222.486 419.31 222.424 419.346C222.301 419.415 222.054 419.53 221.663 419.611L224.695 434.301ZM214.58 433.304C217.3 434.589 220.882 435.088 224.695 434.301L221.663 419.611C221.273 419.691 221 419.684 220.859 419.669C220.788 419.661 220.758 419.652 220.77 419.655C220.778 419.657 220.854 419.678 220.988 419.742L214.58 433.304ZM207.485 425.34C208.415 427.495 209.54 429.251 210.881 430.642C212.289 432.102 213.656 432.867 214.58 433.304L220.988 419.742C220.991 419.743 221.035 419.764 221.098 419.799C221.163 419.835 221.238 419.879 221.317 419.933C221.483 420.045 221.604 420.153 221.678 420.23C221.826 420.383 221.622 420.241 221.26 419.401L207.485 425.34ZM104.983 187.621L207.485 425.34L221.26 419.401L118.757 181.682L104.983 187.621ZM83.8483 204.902L114.84 191.539L108.901 177.765L77.9091 191.128L83.8483 204.902ZM73.9917 200.985L176.494 438.703L190.268 432.764L87.7657 195.046L73.9917 200.985ZM176.494 438.703C197.616 487.688 270.701 472.603 270.701 419.258H255.701C255.701 456.31 204.938 466.787 190.268 432.764L176.494 438.703ZM270.701 419.258V309.379H255.701V419.258H270.701ZM270.701 309.379V274.5H255.701V309.379H270.701ZM270.701 274.5C270.701 235.15 302.6 203.25 341.951 203.25V188.25C294.316 188.25 255.701 226.865 255.701 274.5H270.701ZM341.951 203.25H393.294V188.25H341.951V203.25ZM393.294 203.25H456.466V188.25H393.294V203.25ZM448.966 162V195.75H463.966V162H448.966ZM393.294 169.5H456.466V154.5H393.294V169.5ZM341.951 169.5H393.294V154.5H341.951V169.5ZM236.951 274.5C236.951 216.51 283.961 169.5 341.951 169.5V154.5C275.676 154.5 221.951 208.226 221.951 274.5H236.951ZM236.951 309.379V274.5H221.951V309.379H236.951ZM236.951 419.258V309.379H221.951V419.258H236.951ZM456.466 195.75H393.294V210.75H456.466V195.75ZM393.294 195.75H341.951V210.75H393.294V195.75ZM341.951 195.75C298.458 195.75 263.201 231.008 263.201 274.5H278.201C278.201 239.292 306.742 210.75 341.951 210.75V195.75ZM263.201 274.5V305.629H278.201V274.5H263.201ZM270.701 313.129H393.294V298.129H270.701V313.129ZM385.794 271.879V305.629H400.794V271.879H385.794ZM304.541 279.379H393.294V264.379H304.541V279.379ZM341.951 229.5C318.152 229.5 298.674 247.97 297.059 271.362L312.023 272.396C313.099 256.813 326.09 244.5 341.951 244.5V229.5ZM393.294 229.5H341.951V244.5H393.294V229.5ZM456.466 229.5H393.294V244.5H456.466V229.5ZM448.966 203.25V237H463.966V203.25H448.966ZM393.294 305.629H270.701V320.629H393.294V305.629ZM263.201 313.129V419.258H278.201V313.129H263.201ZM263.201 419.258C263.201 464.456 201.277 477.238 183.381 435.734L169.607 441.673C193.954 498.139 278.201 480.75 278.201 419.258H263.201ZM183.381 435.734L80.8787 198.015L67.1046 203.954L169.607 441.673L183.381 435.734ZM45.9696 221.235L76.9613 207.872L71.022 194.098L40.0304 207.461L45.9696 221.235ZM152.389 449.097L49.887 211.379L36.113 217.318L138.615 455.036L152.389 449.097ZM296.951 419.258C296.951 501.116 184.801 524.265 152.389 449.097L138.615 455.036C177.478 545.166 311.951 517.41 311.951 419.258H296.951ZM296.951 346.879V419.258H311.951V346.879H296.951ZM393.294 339.379H304.451V354.379H393.294V339.379ZM385.794 313.129V346.879H400.794V313.129H385.794Z" fill="black" mask="url(#path-3-inside-2_592_56)"/>
<defs>
<linearGradient id="paint0_linear_592_56" x1="0" y1="0" x2="692.308" y2="461.538" gradientUnits="userSpaceOnUse">
<stop offset="0.150413" stop-color="#FF1010"/>
<stop offset="0.465" stop-color="#FFBB00"/>
<stop offset="0.751212" stop-color="#FF2200"/>
</linearGradient>
</defs>
</svg>
