<svg width="566" height="463" viewBox="0 0 566 463" fill="none" xmlns="http://www.w3.org/2000/svg">
<path fill-rule="evenodd" clip-rule="evenodd" d="M255.999 350C255.999 354.799 254.596 356.876 253.614 357.992C252.241 359.551 249.757 361.195 246.304 361.91C242.851 362.625 239.919 362.105 238.039 361.219C236.695 360.586 234.581 359.237 232.674 354.833L92.0749 30.132L50.78 48.0132L191.38 372.714C216.033 429.649 300.999 412.043 300.999 350V200V150C300.999 92.0101 348.009 45 405.999 45H479.204H565.807V0H479.204H405.999C323.157 0 255.999 67.1573 255.999 150V200V350ZM565.807 55H479.204H405.999C353.532 55 310.999 97.533 310.999 150V195H479.204V150H355.999C355.999 122.386 378.385 100 405.999 100H479.204H565.807V55ZM479.204 205H310.999V350C310.999 422.897 211.169 443.583 182.203 376.688L41.6034 51.9868L0.308594 69.868L140.908 394.569C189.282 506.284 355.999 471.74 355.999 350V250H479.204V205Z" fill="black"/>
</svg>
