<svg width="400" height="501" viewBox="0 0 400 501" fill="none" xmlns="http://www.w3.org/2000/svg">
<ellipse cx="200" cy="475.5" rx="50" ry="12.5" fill="#A9A9A9" fill-opacity="0.5"/>
<path d="M140.95 83.4699L104 34L190.235 431.042C192.516 441.544 207.495 441.546 209.779 431.045L295.5 36.9811L275.987 47.1704L268.187 39.8468H254.05L241.375 33.4785V19.4682L250.637 14.0551L259.412 19.4682L262.337 23.926L273.062 25.8365L279.4 19.4682L273.062 14.0551L259.412 9.27883H231.625L220.412 33.4785L241.375 47.1704L254.05 52.5835L262.337 70.4148L245.762 79.6489L234.062 68.5043L209.687 83.4699L220.412 89.2014L227.237 79.6489L234.062 91.4303L215.537 107.351H190.187L174.587 91.4303L190.187 83.4699L200.425 75.8279L209.687 63.4096L215.537 47.1704L200.425 28.7022H179.462L171.662 39.8468L182.387 47.1704L185.8 36.9811L196.525 52.5835L185.8 63.4096L171.662 65.3201L162.887 42.3941L171.662 17.2392L156.062 4.50258L131.2 1L110.725 6.7315L140.95 28.7022V83.4699Z" fill="url(#paint0_linear_201_6)" stroke="black"/>
<path d="M307.709 21L400 21C351.094 21 350.024 21 209.636 470.167C206.712 479.523 193.288 479.523 190.364 470.167C49.976 21 48.9056 21 0 21H92.2911C96.8338 21 100.806 24.062 101.962 28.4551L190.329 364.251C192.945 374.191 207.055 374.191 209.671 364.251L298.038 28.4551C299.194 24.0619 303.166 21 307.709 21Z" fill="url(#paint1_linear_201_6)" stroke="black"/>
<defs>
<linearGradient id="paint0_linear_201_6" x1="200" y1="1" x2="200" y2="405.5" gradientUnits="userSpaceOnUse">
<stop stop-color="#FF0000"/>
<stop offset="0.578125" stop-color="#FFB800"/>
<stop offset="1" stop-color="white"/>
</linearGradient>
<linearGradient id="paint1_linear_201_6" x1="200" y1="21" x2="200" y2="501" gradientUnits="userSpaceOnUse">
<stop stop-color="#591FFF"/>
<stop offset="1" stop-color="#1FA1FF" stop-opacity="0.9"/>
</linearGradient>
</defs>
</svg>
