<svg width="600" height="600" viewBox="0 0 600 600" fill="none" xmlns="http://www.w3.org/2000/svg">
<circle cx="300" cy="300" r="295" fill="black" stroke="white" stroke-width="10"/>
<path d="M240.95 192.47L204 143L290.235 540.042C292.516 550.544 307.495 550.546 309.779 540.045L395.5 145.981L375.987 156.17L368.187 148.847H354.05L341.375 142.478V128.468L350.637 123.055L359.412 128.468L362.337 132.926L373.062 134.836L379.4 128.468L373.062 123.055L359.412 118.279H331.625L320.412 142.478L341.375 156.17L354.05 161.583L362.337 179.415L345.762 188.649L334.062 177.504L309.687 192.47L320.412 198.201L327.237 188.649L334.062 200.43L315.537 216.351H290.187L274.587 200.43L290.187 192.47L300.425 184.828L309.687 172.41L315.537 156.17L300.425 137.702H279.462L271.662 148.847L282.387 156.17L285.8 145.981L296.525 161.583L285.8 172.41L271.662 174.32L262.887 151.394L271.662 126.239L256.062 113.503L231.2 110L210.725 115.731L240.95 137.702V192.47Z" fill="url(#paint0_linear_308_21)"/>
<path d="M407.709 107L500 107C451.094 107 450.024 107 309.636 556.167C306.712 565.523 293.288 565.523 290.364 556.167C149.976 107 148.906 107 100 107H192.291C196.834 107 200.806 110.062 201.962 114.455L290.329 450.251C292.945 460.191 307.055 460.191 309.671 450.251L398.038 114.455C399.194 110.062 403.166 107 407.709 107Z" fill="url(#paint1_linear_308_21)"/>
<defs>
<linearGradient id="paint0_linear_308_21" x1="300" y1="110" x2="300" y2="514.5" gradientUnits="userSpaceOnUse">
<stop stop-color="#FF0000"/>
<stop offset="0.578125" stop-color="#FFB800"/>
<stop offset="1" stop-color="white"/>
</linearGradient>
<linearGradient id="paint1_linear_308_21" x1="300" y1="107" x2="300" y2="587" gradientUnits="userSpaceOnUse">
<stop stop-color="#591FFF"/>
<stop offset="1" stop-color="#1FA1FF" stop-opacity="0.9"/>
</linearGradient>
</defs>
</svg>
